<svg width="21" height="17" viewBox="0 0 21 17" fill="none" xmlns="http://www.w3.org/2000/svg">
<path fill-rule="evenodd" clip-rule="evenodd" d="M11.1254 5.32125C11.3281 5.20785 11.5377 5.10455 11.7535 5.01206L11.7509 5.00852C12.588 4.62094 13.5246 4.40403 14.5133 4.40403C16.9971 4.40403 19.1524 5.77297 20.2263 7.77799C20.72 8.6583 21 9.66433 21 10.7328C21 14.1941 18.0619 17 14.4375 17C11.6693 17 9.30149 15.3632 8.33723 13.0478H0.0696357C0.00670108 13.0478 -0.0187047 13.0054 0.0148755 12.9498L7.81602 0.0411247C7.84871 -0.0129704 7.90083 -0.0144411 7.93441 0.0411247L11.1254 5.32125ZM11.5628 6.04512C12.4063 5.57233 13.3888 5.30126 14.4375 5.30126C17.5786 5.30126 20.125 7.73305 20.125 10.7328C20.125 13.7326 17.5786 16.1644 14.4375 16.1644C12.1634 16.1644 10.201 14.8898 9.29096 13.0478H15.6808C15.7435 13.0478 15.7682 13.0039 15.7356 12.9498L11.5628 6.04512ZM14.1207 12.0916H1.57499L7.84783 1.73026L14.1207 12.0916Z" fill="white"/>
</svg>
