<svg width="15" height="19" viewBox="0 0 15 19" fill="none" xmlns="http://www.w3.org/2000/svg">
<path fill-rule="evenodd" clip-rule="evenodd" d="M9.36614 1C9.3531 1.00078 9.34015 1.00256 9.32737 1.00531H1.26115C1.11694 1.00533 1.00002 1.12422 1 1.27088V17.7344C1.00002 17.8811 1.11694 18 1.26115 18H13.7354C13.8796 18 13.9965 17.8811 13.9965 17.7344V5.7455C14.0124 5.64737 13.973 5.54845 13.8945 5.48917L9.58139 1.11108C9.53132 1.04134 9.45104 1.0007 9.36614 1.00213L9.36614 1ZM1.52231 1.53433H9.10906V5.70077C9.10909 5.84743 9.226 5.96632 9.37022 5.96634H13.4742V17.4666H1.52231V1.53428V1.53433ZM9.63137 1.90886L13.1029 5.43514H9.63137V1.90886Z" fill="white"/>
<path d="M9.36614 1L9.61901 1.00011L9.61913 0.731473L9.35098 0.74758L9.36614 1ZM9.32737 1.00531V1.25819H9.35432L9.38067 1.25251L9.32737 1.00531ZM1.26115 1.00531V0.752438H1.26113L1.26115 1.00531ZM1 1.27088L0.747125 1.27084V1.27088H1ZM1 17.7344H0.747125V17.7345L1 17.7344ZM1.26115 18L1.26113 18.2529H1.26115V18ZM13.7354 18V18.2529H13.7354L13.7354 18ZM13.9965 17.7344L14.2494 17.7345V17.7344H13.9965ZM13.9965 5.7455L13.7469 5.70515L13.7437 5.7252V5.7455H13.9965ZM13.8945 5.48917L13.7144 5.66664L13.7274 5.67982L13.7421 5.69097L13.8945 5.48917ZM9.58139 1.11108L9.37596 1.25855L9.38744 1.27454L9.40125 1.28855L9.58139 1.11108ZM9.36614 1.00213L9.11326 1.00201L9.11315 1.25928L9.37038 1.25496L9.36614 1.00213ZM1.52231 1.53433H1.26944V1.78721H1.52231V1.53433ZM9.10906 1.53433H9.36194V1.28146H9.10906V1.53433ZM9.10906 5.70077L8.85619 5.70077V5.70081L9.10906 5.70077ZM9.37022 5.96634L9.37019 6.21921H9.37022V5.96634ZM13.4742 5.96634H13.7271V5.71346H13.4742V5.96634ZM13.4742 17.4666V17.7195H13.7271V17.4666H13.4742ZM1.52231 17.4666H1.26944V17.7195H1.52231V17.4666ZM9.63137 1.90886L9.81158 1.73146L9.3785 1.29155V1.90886H9.63137ZM13.1029 5.43514V5.68802H13.7067L13.2831 5.25774L13.1029 5.43514ZM9.63137 5.43514H9.3785V5.68802H9.63137V5.43514ZM9.35098 0.74758C9.32511 0.749134 9.2994 0.752657 9.27408 0.758117L9.38067 1.25251C9.38089 1.25246 9.3811 1.25243 9.3813 1.25242L9.35098 0.74758ZM9.32737 0.752438H1.26115V1.25819H9.32737V0.752438ZM1.26113 0.752438C0.973281 0.752467 0.747173 0.988572 0.747125 1.27084L1.25288 1.27093C1.25288 1.26595 1.2546 1.26266 1.25681 1.26041C1.25794 1.25926 1.25892 1.25871 1.25944 1.25848C1.25978 1.25834 1.26019 1.25819 1.26118 1.25819L1.26113 0.752438ZM0.747125 1.27088V17.7344H1.25288V1.27088H0.747125ZM0.747125 17.7345C0.747173 18.0167 0.973282 18.2528 1.26113 18.2529L1.26118 17.7471C1.26019 17.7471 1.25978 17.747 1.25944 17.7468C1.25892 17.7466 1.25794 17.7461 1.25681 17.7449C1.2546 17.7427 1.25288 17.7394 1.25288 17.7344L0.747125 17.7345ZM1.26115 18.2529H13.7354V17.7471H1.26115V18.2529ZM13.7354 18.2529C14.0233 18.2528 14.2494 18.0167 14.2494 17.7345L13.7437 17.7344C13.7437 17.7394 13.7419 17.7427 13.7397 17.7449C13.7386 17.7461 13.7376 17.7466 13.7371 17.7468C13.7368 17.747 13.7364 17.7471 13.7354 17.7471L13.7354 18.2529ZM14.2494 17.7344V5.7455H13.7437V17.7344H14.2494ZM14.2462 5.78584C14.2768 5.59643 14.2012 5.40386 14.0469 5.28737L13.7421 5.69097C13.7449 5.69305 13.748 5.69831 13.7469 5.70515L14.2462 5.78584ZM14.0747 5.3117L9.76153 0.933616L9.40125 1.28855L13.7144 5.66664L14.0747 5.3117ZM9.78681 0.963615C9.68901 0.827383 9.53084 0.746454 9.3619 0.749286L9.37038 1.25496C9.37124 1.25495 9.37363 1.2553 9.37596 1.25855L9.78681 0.963615ZM9.61901 1.00224L9.61901 1.00011L9.11326 0.999887L9.11326 1.00201L9.61901 1.00224ZM1.52231 1.78721H9.10906V1.28146H1.52231V1.78721ZM8.85619 1.53433V5.70077H9.36194V1.53433H8.85619ZM8.85619 5.70081C8.85624 5.98308 9.08235 6.21918 9.37019 6.21921L9.37024 5.71346C9.36925 5.71346 9.36884 5.71331 9.3685 5.71317C9.36798 5.71294 9.367 5.71239 9.36587 5.71124C9.36366 5.70899 9.36194 5.7057 9.36194 5.70072L8.85619 5.70081ZM9.37022 6.21921H13.4742V5.71346H9.37022V6.21921ZM13.2214 5.96634V17.4666H13.7271V5.96634H13.2214ZM13.4742 17.2138H1.52231V17.7195H13.4742V17.2138ZM1.77519 17.4666V1.53428H1.26944V17.4666H1.77519ZM1.26944 1.53428V1.53433H1.77519V1.53428H1.26944ZM9.45117 2.08627L12.9227 5.61255L13.2831 5.25774L9.81158 1.73146L9.45117 2.08627ZM13.1029 5.18227H9.63137V5.68802H13.1029V5.18227ZM9.88425 5.43514V1.90886H9.3785V5.43514H9.88425Z" fill="white"/>
</svg>
